<svg version="1.1" id="Ebene_1" xmlns="http://www.w3.org/2000/svg" xmlns:xlink="http://www.w3.org/1999/xlink" width="100%" height="100%" viewBox="0 0 8.7 32" xml:space="preserve">
<style type="text/css">
	.st0{fill:#043949;}
</style>
<g id="XMLID_6_" transform="rotate(7.4303 319.12 271.87)">
	<g id="XMLID_8_" transform="matrix(.98901 -.11248 -.14785 -.75237 53.445 98.878)">
		<path id="XMLID_4_" class="st0" d="M-68,84.8c-0.1,0-0.1-0.2-0.3-0.6c-0.1-0.4-0.3-1-0.5-1.6c-0.2-0.5-0.4-1.1-0.6-1.7
			c-0.2-0.5-0.4-1-0.6-1.4c-0.2-0.4-0.4-0.8-0.5-1.1s-0.3-0.6-0.4-0.8c-0.1-0.2-0.1-0.3-0.1-0.4c0-0.1,0.1,0,0.2,0.1
			c0.1,0.1,0.3,0.3,0.5,0.5c0.2,0.3,0.4,0.6,0.6,1c0.2,0.4,0.5,0.9,0.7,1.5c0.2,0.7,0.4,1.3,0.6,1.9c0.2,0.7,0.2,1.4,0.3,1.9
			C-68,84.5-68,84.7-68,84.8L-68,84.8z"/>
		<path id="XMLID_3_" class="st0" d="M-68,84.5c-0.1,0-0.1-0.3-0.1-0.7c0-0.4,0-1.1,0.1-1.8c0.1-0.6,0.2-1.3,0.4-1.9
			c0.2-0.6,0.3-1.1,0.5-1.5c0.2-0.4,0.4-0.8,0.5-1.1c0.2-0.3,0.3-0.5,0.4-0.6c0.1-0.1,0.2-0.2,0.2-0.1c0,0.1,0,0.2-0.1,0.4
			c-0.1,0.2-0.2,0.5-0.3,0.8c-0.1,0.3-0.3,0.7-0.4,1.1c-0.1,0.4-0.3,0.9-0.4,1.4c-0.2,0.6-0.3,1.2-0.4,1.7c-0.1,0.7-0.2,1.2-0.3,1.6
			C-67.9,84.3-67.9,84.5-68,84.5L-68,84.5z"/>
		<path id="XMLID_2_" class="st0" d="M-70.5,77c0-0.1,0.2-0.1,0.4-0.1c0.2,0.1,0.5,0.2,0.9,0.2c0.3,0.1,0.6,0.1,1,0.1
			c0.3,0,0.6,0,0.8-0.1c0.3-0.1,0.5-0.1,0.7-0.2c0.2-0.1,0.4-0.1,0.5-0.1c0.1,0,0.2,0,0.2,0.1c0,0.1,0,0.2-0.2,0.4
			c-0.1,0.2-0.3,0.3-0.5,0.5c-0.2,0.2-0.5,0.3-0.7,0.5c-0.3,0.1-0.6,0.2-0.9,0.2c-0.4,0-0.7-0.1-1-0.3c-0.4-0.2-0.6-0.5-0.8-0.7
			C-70.4,77.3-70.5,77.1-70.5,77L-70.5,77z"/>
	</g>
	<path id="XMLID_1_" class="st0" d="M-26.1,50.2c-0.1,1.7,1,7.7,1.5,10.6c0.5,3,1.4,5.4,1.1,10.7c-0.3,5.3-4.6-0.8-5.2,0.2
		c-0.6,1,1.8,1.8,2.8,2.4c1.1,0.6,2.8,1.4,3.2-1.8c0.3-3.2-0.1-3.6-1.7-15.1S-26,48.5-26.1,50.2L-26.1,50.2z"/>
</g>
</svg>
