<svg version="1.1" id="Ebene_1" xmlns="http://www.w3.org/2000/svg" xmlns:xlink="http://www.w3.org/1999/xlink" x="0px" y="0px"
	 width="100%" height="100%" viewBox="0 0 32 32" xml:space="preserve">
<path style="fill:#043949;" d="M21.43,9.08c-1.17,0.79-4.31,0.72-5.68-1.3l0,0c-0.57-0.83-1.62-1.26-2.64-0.98
	c-1.3,0.34-2.07,1.68-1.72,2.98c0.34,1.3,1.68,2.07,2.98,1.72c0.37-0.1,0.7-0.28,0.97-0.52l0,0c1.83-1.6,4.9-0.88,5.83,0.18
	l0.07-0.56c-0.01-0.03-0.02-0.06-0.03-0.09c-0.08-0.31-0.02-0.63,0.15-0.88L21.43,9.08z M14.21,10.91
	c-0.97,0.26-1.98-0.31-2.24-1.29c-0.26-0.97,0.31-1.98,1.29-2.24c0.97-0.26,1.98,0.31,2.24,1.29c0.06,0.24,0.08,0.49,0.05,0.72
	c0,0.01,0,0.01,0,0.02C15.44,10.11,14.94,10.72,14.21,10.91z"/>
<path style="fill:#168DB1;" d="M9.87,10.55C9.7,10.09,9.31,9.77,8.86,9.66l0,0c-1.24-0.29-1.92-0.92-1.5-2.68L6.38,7.66
	C6.29,7.73,6.19,7.8,6.09,7.85L5.11,8.53C6.9,8.75,7.26,9.61,7.1,10.87l0,0c-0.03,0.22,0,0.46,0.08,0.68
	c0.27,0.74,1.1,1.11,1.84,0.84C9.77,12.12,10.14,11.29,9.87,10.55z M8.81,12.09c-0.57,0.15-1.15-0.18-1.32-0.76
	c-0.07-0.27-0.03-0.56,0.1-0.79c0.01-0.02,0.02-0.04,0.03-0.05c0.01-0.01,0.01-0.02,0.02-0.04c0.01-0.02,0.02-0.03,0.04-0.05
	c0.01-0.01,0.02-0.02,0.03-0.03c0.01-0.02,0.03-0.03,0.04-0.05c0.01-0.01,0.02-0.02,0.03-0.03c0.01-0.01,0.03-0.03,0.05-0.04
	c0.01-0.01,0.02-0.02,0.03-0.03c0.02-0.01,0.03-0.03,0.05-0.04c0.01-0.01,0.02-0.02,0.03-0.02c0.02-0.01,0.04-0.02,0.06-0.03
	c0.01-0.01,0.02-0.01,0.03-0.02c0.02-0.01,0.05-0.02,0.07-0.03c0.01,0,0.02-0.01,0.03-0.01c0.03-0.01,0.07-0.02,0.1-0.03l0,0l0,0
	c0.04-0.01,0.08-0.02,0.12-0.02c0.53-0.08,1.04,0.25,1.19,0.78C9.72,11.35,9.38,11.94,8.81,12.09z"/>
<path style="fill:#168DB1;" d="M22.95,16.26c-0.02-0.05-0.04-0.11-0.05-0.17c-0.02-0.08-0.04-0.16-0.05-0.24l-0.38-1.53
	c-1.25,2.38-4.52,2.85-5.97,2.09l0,0c-0.35-0.18-0.77-0.24-1.19-0.13c-0.87,0.23-1.39,1.13-1.15,2.01c0.23,0.87,1.13,1.39,2.01,1.15
	c0.4-0.1,0.72-0.34,0.93-0.67l0,0c0.92-1.36,4.01-2.48,6.24-0.97L22.95,16.26z M16.05,19.03c-0.66,0.17-1.33-0.21-1.5-0.87
	c-0.17-0.66,0.21-1.33,0.87-1.5c0.48-0.13,0.96,0.04,1.26,0.4c0.02,0.02,0.03,0.04,0.05,0.06c0.01,0.01,0.02,0.03,0.03,0.04
	c0.01,0.02,0.03,0.04,0.04,0.07c0.01,0.02,0.02,0.03,0.03,0.05c0.01,0.03,0.02,0.05,0.04,0.08c0.01,0.01,0.01,0.03,0.02,0.04
	c0.02,0.04,0.03,0.08,0.04,0.12l0,0c0.01,0.05,0.02,0.09,0.03,0.14c0,0.01,0,0.03,0,0.04c0,0.03,0.01,0.07,0.01,0.1
	c0,0.02,0,0.03,0,0.05c0,0.03,0,0.07,0,0.1c0,0.01,0,0.03,0,0.04c-0.01,0.04-0.01,0.09-0.02,0.13
	C16.83,18.56,16.51,18.91,16.05,19.03z"/>
<path style="fill:#168DB1;" d="M19.53,13.18c-0.18-0.69-0.89-1.09-1.58-0.91c-0.26,0.07-0.49,0.22-0.66,0.42l0,0
	c-0.83,0.99-3.52,1.29-4.6,0.38l0.06,0.66c0.02,0.05,0.04,0.1,0.05,0.15c0.04,0.17,0.05,0.33,0.01,0.5l0.06,0.66
	c0.88-1.09,3.58-1.33,4.59-0.52l0,0c0.31,0.25,0.73,0.35,1.14,0.24C19.3,14.58,19.72,13.87,19.53,13.18z M18.53,14.44
	c-0.46,0.12-0.91-0.1-1.11-0.51l0,0c-0.03-0.06-0.05-0.12-0.07-0.18c-0.01-0.04-0.02-0.08-0.02-0.12c0-0.01,0-0.02,0-0.03
	c0-0.03-0.01-0.06-0.01-0.09c0-0.01,0-0.02,0-0.03c0-0.08,0.01-0.15,0.03-0.22c0.08-0.32,0.33-0.6,0.69-0.69l0,0
	c0.52-0.14,1.04,0.17,1.19,0.69C19.35,13.78,19.05,14.31,18.53,14.44z"/>
<path style="fill:#168DB1;" d="M23.61,29.63c-0.06-0.32-0.26-0.6-0.53-0.76l0,0c-0.98-0.6-1.57-1.92-0.7-3.35l-2.16,0.64
	c1.51,0.73,1.73,2.16,1.24,3.2l0,0l0,0c-0.1,0.21-0.14,0.47-0.09,0.72c0.12,0.62,0.73,1.02,1.35,0.9
	C23.34,30.86,23.74,30.25,23.61,29.63z M22.66,30.7c-0.48,0.09-0.93-0.21-1.02-0.69c-0.06-0.3,0.05-0.61,0.25-0.8
	c0.02-0.02,0.04-0.04,0.07-0.06c0.01-0.01,0.02-0.01,0.02-0.02c0.03-0.02,0.06-0.04,0.09-0.06h0.01c0.03-0.02,0.06-0.03,0.09-0.04
	c0.01,0,0.02-0.01,0.03-0.01c0.04-0.01,0.07-0.02,0.11-0.03c0.12-0.02,0.23-0.02,0.34,0l0,0c0.33,0.07,0.61,0.33,0.68,0.69
	C23.44,30.16,23.13,30.61,22.66,30.7z"/>
<path style="fill:#043949;" d="M27.79,21.61c-0.01-0.05-0.02-0.1-0.02-0.15l-0.36-0.92c-0.77,1.89-4.28,3.18-5.83,2.55l0,0
	c-0.29-0.12-0.62-0.16-0.95-0.09c-0.91,0.18-1.5,1.06-1.32,1.98s1.06,1.5,1.98,1.32c0.55-0.11,0.98-0.48,1.21-0.95l0,0
	c0.69-1.53,4.12-3.01,5.98-2.17l-0.36-0.91C27.94,22.07,27.84,21.85,27.79,21.61z M21.2,25.87c-0.68,0.13-1.34-0.3-1.47-0.98
	c-0.13-0.68,0.3-1.34,0.98-1.47c0.47-0.09,0.92,0.08,1.21,0.43l0.01,0.01c0.02,0.02,0.04,0.05,0.05,0.07
	c0.01,0.01,0.01,0.02,0.02,0.03c0.01,0.02,0.03,0.04,0.04,0.06c0.01,0.01,0.01,0.02,0.02,0.03c0.02,0.03,0.03,0.06,0.04,0.09
	c0.01,0.01,0.01,0.02,0.01,0.04c0.01,0.02,0.02,0.04,0.02,0.07c0,0.01,0.01,0.03,0.01,0.04c0.01,0.03,0.01,0.05,0.02,0.08
	c0,0.01,0,0.02,0.01,0.03c0.02,0.08,0.02,0.16,0.02,0.24l0,0C22.2,25.23,21.79,25.76,21.2,25.87z"/>
<path style="fill:#168DB1;" d="M30.93,20.09L30.93,20.09c-1.22-1.64-0.67-3.2,0.46-4.04l-0.56-0.11h-0.01
	c-0.32,0.09-0.66,0.01-0.91-0.18l-0.56-0.11c0.73,1.21,0.65,2.87-1.1,3.92l0,0l0,0c-0.76,0.46-1.17,1.38-0.92,2.28
	c0.29,1.09,1.41,1.73,2.5,1.45c1.09-0.29,1.73-1.41,1.45-2.5C31.21,20.52,31.09,20.29,30.93,20.09z M29.7,22.79
	c-0.82,0.22-1.66-0.26-1.87-1.08c-0.22-0.82,0.26-1.66,1.08-1.87c0.15-0.04,0.3-0.06,0.46-0.05h0.01c0.04,0,0.08,0.01,0.12,0.01
	c0.01,0,0.03,0,0.04,0.01c0.03,0,0.06,0.01,0.09,0.02c0.01,0,0.03,0.01,0.04,0.01c0.03,0.01,0.06,0.02,0.09,0.03
	c0.01,0,0.02,0.01,0.04,0.01c0.46,0.16,0.83,0.54,0.97,1.04C30.99,21.73,30.52,22.57,29.7,22.79z"/>
<path style="fill:#043949;" d="M31.91,14.56c-0.12-0.44-0.44-0.77-0.82-0.93l0,0c-1.3-0.54-2.17-2.63-1.64-3.94l-0.6,0.24
	c-0.12,0.11-0.26,0.19-0.44,0.23c-0.07,0.02-0.14,0.03-0.21,0.03l-0.6,0.24c1.3,0.54,2.17,2.63,1.64,3.94l0,0
	c-0.11,0.27-0.14,0.59-0.06,0.9c0.2,0.75,0.97,1.2,1.72,0.99C31.66,16.08,32.11,15.31,31.91,14.56z M30.82,15.93
	c-0.56,0.15-1.13-0.18-1.29-0.75c-0.11-0.41,0.04-0.82,0.33-1.07c0.02-0.01,0.03-0.03,0.05-0.04c0.01-0.01,0.03-0.02,0.04-0.03
	c0.02-0.01,0.03-0.02,0.05-0.03c0.01-0.01,0.03-0.02,0.05-0.03c0.02-0.01,0.04-0.02,0.06-0.03c0.02-0.01,0.03-0.01,0.05-0.02
	c0.02-0.01,0.05-0.02,0.08-0.03c0.01,0,0.02-0.01,0.03-0.01c0.56-0.15,1.13,0.18,1.29,0.75C31.72,15.2,31.39,15.78,30.82,15.93z"/>
<path style="fill:#168DB1;" d="M23.34,9.39L23.34,9.39c-0.67-0.88-0.78-1.69,0.5-2.66l-1.31-0.09c-0.03,0-0.06,0-0.09-0.01
	l-1.31-0.09c1.12,1.14,0.89,1.94,0.1,2.7l0,0c-0.35,0.34-0.51,0.86-0.37,1.37c0.2,0.75,0.97,1.2,1.72,0.99
	c0.75-0.2,1.2-0.97,0.99-1.72C23.53,9.69,23.45,9.53,23.34,9.39z M22.49,11.25c-0.56,0.15-1.13-0.18-1.29-0.75
	c-0.14-0.52,0.13-1.05,0.63-1.25c0.01,0,0.02-0.01,0.03-0.01c0.03-0.01,0.06-0.02,0.09-0.03C22,9.21,22.03,9.2,22.07,9.2
	c0.01,0,0.03,0,0.04,0c0.02,0,0.05-0.01,0.07-0.01c0.01,0,0.03,0,0.04,0c0.02,0,0.04,0,0.06,0s0.03,0,0.04,0
	c0.02,0,0.04,0,0.06,0.01c0.01,0,0.03,0.01,0.04,0.01c0.02,0,0.04,0.01,0.06,0.01c0.01,0,0.03,0.01,0.04,0.01
	c0.02,0.01,0.04,0.01,0.06,0.02c0.01,0.01,0.03,0.01,0.04,0.02c0.02,0.01,0.04,0.01,0.05,0.02s0.03,0.01,0.04,0.02
	c0.02,0.01,0.03,0.02,0.05,0.03c0.22,0.13,0.4,0.35,0.48,0.63C23.39,10.52,23.05,11.1,22.49,11.25z"/>
<path style="fill:#043949;" d="M28.69,10.44l-0.48-0.24c-0.4,0.03-0.77-0.17-0.97-0.5l-0.48-0.24c0.3,1.37,0.1,2.91-2.52,3.5l0,0
	l0,0c-0.04,0.01-0.07,0.02-0.11,0.03c-1.44,0.38-2.29,1.85-1.9,3.29c0.38,1.44,1.85,2.29,3.29,1.9c1.44-0.38,2.29-1.85,1.9-3.29
	c-0.03-0.12-0.07-0.23-0.12-0.34l0,0C26.27,12.04,27.4,10.99,28.69,10.44z M25.36,17.51c-1.07,0.28-2.18-0.35-2.47-1.43
	c-0.28-1.07,0.35-2.18,1.43-2.47c1.07-0.28,2.18,0.35,2.47,1.43C27.07,16.13,26.44,17.23,25.36,17.51z"/>
<path style="fill:#168DB1;" d="M29.5,8.78C29.32,8.1,28.67,7.68,28,7.75l0,0c-1.4,0.15-3.15-0.84-3.37-2.88l-0.66,0.9
	c-0.08,0.15-0.18,0.29-0.3,0.42L23,7.09c2.01-0.42,3.49,0.95,3.77,2.33l0,0c0.01,0.03,0.01,0.05,0.02,0.08
	c0.2,0.75,0.97,1.2,1.72,0.99C29.26,10.3,29.71,9.53,29.5,8.78z M28.42,10.17c-0.56,0.15-1.13-0.18-1.29-0.75
	c-0.04-0.16-0.04-0.31-0.02-0.47c0.01-0.03,0.01-0.06,0.02-0.09c0-0.01,0-0.01,0.01-0.02c0.01-0.03,0.02-0.06,0.03-0.09
	c0,0,0-0.01,0.01-0.01c0.05-0.1,0.11-0.2,0.18-0.29l0.01-0.01c0.02-0.02,0.04-0.04,0.07-0.07c0.01-0.01,0.01-0.01,0.02-0.02
	c0.02-0.02,0.05-0.04,0.07-0.05c0.01-0.01,0.02-0.01,0.02-0.02c0.03-0.02,0.05-0.03,0.08-0.05c0.07-0.04,0.15-0.07,0.23-0.09
	c0.56-0.15,1.13,0.18,1.29,0.75C29.32,9.44,28.99,10.02,28.42,10.17z"/>
<path style="fill:#043949;" d="M13.15,13.79c-0.2-0.75-0.97-1.2-1.72-0.99c-0.64,0.17-1.04,0.75-1.04,1.38l0,0
	c0.01,1.19-0.41,1.98-2.14,2l0.94,0.82c0.06,0.04,0.11,0.09,0.16,0.14l0.94,0.82c-0.22-1.71,0.5-2.24,1.67-2.39l0,0
	c0.06-0.01,0.12-0.02,0.18-0.03C12.91,15.31,13.36,14.54,13.15,13.79z M12.07,15.16c-0.17,0.05-0.35,0.05-0.52,0.01
	c-0.04-0.01-0.07-0.02-0.11-0.03c-0.01,0-0.02-0.01-0.02-0.01c-0.03-0.01-0.06-0.02-0.08-0.04c-0.01,0-0.02-0.01-0.03-0.02
	c-0.03-0.01-0.05-0.03-0.08-0.04c-0.01,0-0.02-0.01-0.03-0.01c-0.03-0.02-0.06-0.04-0.09-0.07l0,0c-0.03-0.03-0.06-0.05-0.09-0.08
	l-0.01-0.01c-0.02-0.03-0.04-0.05-0.06-0.08c-0.01-0.01-0.01-0.01-0.02-0.02c-0.02-0.03-0.04-0.05-0.05-0.08
	c0-0.01-0.01-0.01-0.01-0.02c-0.02-0.04-0.04-0.07-0.05-0.11l0,0c-0.01-0.04-0.03-0.07-0.04-0.11c-0.15-0.56,0.18-1.13,0.75-1.29
	c0.56-0.15,1.13,0.18,1.29,0.75C12.96,14.43,12.63,15.01,12.07,15.16z"/>
<path style="fill:#043949;" d="M24.56,4.57c-0.29-1.09-1.41-1.73-2.5-1.45c-0.27,0.07-0.51,0.19-0.72,0.35l0,0
	c-1.62,1.25-4.91,0.5-5.77-0.62l-0.1,0.58v0.01c0.08,0.31,0.02,0.63-0.15,0.87l-0.1,0.58c1.18-0.77,4.54-0.4,5.65,1.32l0,0
	c0.47,0.72,1.37,1.09,2.24,0.86C24.21,6.78,24.85,5.66,24.56,4.57z M22.99,6.58c-0.82,0.22-1.66-0.26-1.87-1.08
	c-0.03-0.13-0.05-0.25-0.05-0.38c0-0.03,0-0.06,0-0.09c0-0.02,0-0.04,0.01-0.06c0-0.03,0.01-0.06,0.01-0.09
	c0-0.02,0.01-0.04,0.01-0.06c0.01-0.03,0.01-0.06,0.02-0.08c0.01-0.02,0.01-0.04,0.02-0.06c0.01-0.03,0.02-0.05,0.03-0.08
	c0.16-0.45,0.54-0.81,1.04-0.95l0,0c0.82-0.22,1.66,0.26,1.87,1.08C24.29,5.52,23.8,6.36,22.99,6.58z"/>
<path style="fill:#168DB1;" d="M15.81,3.36c-0.2-0.75-0.97-1.2-1.72-0.99c-0.37,0.1-0.68,0.34-0.85,0.66l0,0
	c-0.7,1.22-5.08,2.74-6.85,1.71l0.3,1c0.07,0.11,0.12,0.24,0.15,0.37c0.03,0.1,0.04,0.19,0.05,0.29l0.3,1
	c0.89-1.83,5.37-3.04,6.63-2.42l0,0c0.29,0.14,0.64,0.18,0.98,0.09C15.56,4.88,16.01,4.11,15.81,3.36z M14.72,4.74
	c-0.41,0.11-0.82-0.03-1.07-0.33c-0.02-0.02-0.04-0.04-0.05-0.07c-0.01-0.01-0.01-0.02-0.02-0.02c-0.02-0.02-0.03-0.05-0.05-0.07
	c0-0.01-0.01-0.02-0.01-0.02c-0.02-0.03-0.03-0.06-0.04-0.09c0-0.01,0-0.01-0.01-0.02C13.46,4.07,13.44,4.04,13.43,4
	c-0.04-0.14-0.04-0.27-0.03-0.41c0.05-0.42,0.34-0.77,0.77-0.88c0.56-0.15,1.13,0.18,1.29,0.75C15.63,4.01,15.29,4.59,14.72,4.74z"
	/>
<path style="fill:#043949;" d="M7.35,5.99c-0.29-1.09-1.41-1.73-2.5-1.45C3.75,4.83,3.11,5.94,3.4,7.04
	c0.01,0.04,0.02,0.07,0.03,0.11l0,0c0.5,1.51,0.17,2.51-1.69,3.12l1.18,0.55c0.27,0.06,0.54,0.18,0.76,0.35l1.19,0.55
	C4.12,9.91,4.67,9,6.14,8.41l0,0C7.09,8.02,7.62,6.99,7.35,5.99z M5.77,7.99C5.63,8.03,5.48,8.04,5.34,8.04c-0.03,0-0.07,0-0.1-0.01
	c-0.02,0-0.04,0-0.06-0.01C5.14,8.02,5.11,8.01,5.07,8C5.05,8,5.04,7.99,5.02,7.99C4.97,7.98,4.93,7.97,4.88,7.95H4.87
	c-0.05-0.02-0.1-0.04-0.14-0.06C4.71,7.88,4.7,7.88,4.68,7.87c-0.03-0.02-0.07-0.03-0.1-0.05C4.56,7.81,4.55,7.8,4.53,7.79
	C4.5,7.77,4.47,7.75,4.45,7.73C4.43,7.72,4.42,7.71,4.4,7.69C4.38,7.67,4.35,7.65,4.33,7.63C4.31,7.62,4.3,7.6,4.28,7.59
	C4.26,7.57,4.24,7.55,4.22,7.52C4.07,7.34,3.94,7.13,3.88,6.89C3.66,6.07,4.15,5.23,4.97,5.01C5.79,4.79,6.63,5.28,6.84,6.1
	C7.08,6.93,6.59,7.77,5.77,7.99z"/>
<path style="fill:#043949;" d="M24.05,19.83c-0.27-0.73-1.09-1.09-1.81-0.81c-0.33,0.12-0.59,0.36-0.74,0.66l0,0
	c-0.66,1.25-2.78,2.23-4.59,1.27l0.37,1.04c0.04,0.07,0.07,0.14,0.1,0.22c0.04,0.1,0.06,0.2,0.08,0.3l0.37,1.04
	c0.8-1.88,3.06-2.46,4.36-1.91l0,0c0.32,0.13,0.7,0.15,1.05,0.02C23.96,21.37,24.33,20.56,24.05,19.83z M23.11,21.32
	c-0.41,0.15-0.84,0.04-1.12-0.24c-0.02-0.02-0.04-0.04-0.06-0.07L21.92,21c-0.02-0.03-0.04-0.05-0.06-0.08c0,0,0,0,0-0.01
	c-0.04-0.06-0.07-0.13-0.1-0.2c-0.01-0.04-0.03-0.08-0.04-0.12v-0.01c-0.01-0.03-0.01-0.07-0.02-0.1c0-0.01,0-0.02,0-0.02
	c0-0.03-0.01-0.06-0.01-0.09c0-0.01,0-0.02,0-0.03c0-0.03,0-0.07,0.01-0.1c0.04-0.38,0.28-0.74,0.68-0.88l0,0
	c0.55-0.2,1.15,0.07,1.37,0.61C23.93,20.5,23.66,21.11,23.11,21.32z"/>
<path style="fill:#168DB1;" d="M4.95,12.01c-0.35-1.35-1.73-2.14-3.08-1.78c-1.35,0.36-2.14,1.74-1.78,3.08
	c0.17,0.64,0.57,1.14,1.08,1.47l0,0c1.5,0.95,1.27,1.76,0.82,2.45l0.41-0.03c0.09-0.08,0.21-0.14,0.34-0.18
	c0.23-0.06,0.48-0.02,0.67,0.09l0.41-0.03c-0.55-0.6-0.91-1.36,0.41-2.55l0,0C4.89,13.91,5.2,12.96,4.95,12.01z M0.7,13.15
	c-0.27-1,0.32-2.05,1.34-2.31c1-0.27,2.05,0.32,2.31,1.34c0.27,1-0.32,2.05-1.34,2.31C2,14.76,0.97,14.16,0.7,13.15z"/>
<path style="fill:#043949;" d="M3.76,17.03L3.76,17.03c-0.28-0.27-0.69-0.4-1.09-0.28c-0.62,0.16-0.97,0.79-0.81,1.41
	s0.79,0.97,1.41,0.81c0.14-0.04,0.27-0.1,0.38-0.18l0,0c0.89-0.66,1.83-0.94,2.99,0.64l0.17-2.63C5.45,18.19,4.55,17.79,3.76,17.03z
	 M3.18,18.69c-0.46,0.12-0.93-0.15-1.05-0.61s0.15-0.93,0.61-1.05c0.41-0.11,0.81,0.09,0.99,0.45l0,0c0.03,0.05,0.05,0.11,0.06,0.16
	c0.01,0.03,0.01,0.06,0.02,0.09c0,0.01,0,0.02,0,0.03c0,0.02,0,0.04,0.01,0.06c0,0.01,0,0.02,0,0.04c0,0.02,0,0.03,0,0.05
	c0,0.01,0,0.03,0,0.04c0,0.02,0,0.03-0.01,0.05c0,0.01,0,0.03-0.01,0.04c0,0.02-0.01,0.03-0.01,0.05c0,0.01-0.01,0.03-0.01,0.04
	c0,0.02-0.01,0.03-0.02,0.04c0,0.01-0.01,0.02-0.01,0.04c-0.01,0.01-0.01,0.03-0.02,0.04c-0.01,0.01-0.01,0.02-0.02,0.03
	c-0.01,0.01-0.02,0.03-0.02,0.04C3.58,18.49,3.4,18.63,3.18,18.69z"/>
<path style="fill:#168DB1;" d="M9.98,19.35L9.98,19.35c0.31-0.48,0.44-1.07,0.27-1.67c-0.29-1.09-1.41-1.73-2.5-1.45
	c-1.09,0.29-1.73,1.41-1.45,2.5c0.16,0.6,0.57,1.05,1.08,1.31l0,0c1.19,0.58,1.25,1.25,0.85,2.07l0.54-0.14
	c0.12-0.12,0.28-0.21,0.46-0.25c0.18-0.05,0.35-0.05,0.53-0.01l0.54-0.14C9.53,21.05,9.24,20.44,9.98,19.35z M6.8,18.6
	c-0.22-0.82,0.26-1.66,1.08-1.87c0.82-0.22,1.66,0.26,1.87,1.08c0.22,0.82-0.26,1.66-1.08,1.87C7.86,19.91,7.02,19.42,6.8,18.6z"/>
<path style="fill:#043949;" d="M14.43,21.36c-1.38,1.51-2.95,1.27-3.98,0.31l0,0c-0.34-0.31-0.83-0.46-1.32-0.32
	c-0.75,0.2-1.2,0.97-0.99,1.72c0.2,0.75,0.97,1.2,1.72,0.99c0.22-0.06,0.42-0.17,0.58-0.31v0.01c1.04-0.94,2.61-1.18,3.98,0.34l0,0
	v-1.14c-0.02-0.15-0.02-0.31,0-0.47L14.43,21.36z M9.77,23.73c-0.56,0.15-1.13-0.18-1.29-0.75c-0.15-0.56,0.18-1.13,0.75-1.29l0,0
	c0.56-0.15,1.13,0.18,1.29,0.75C10.66,23.01,10.33,23.58,9.77,23.73z"/>
<path style="fill:#168DB1;" d="M20.8,27.75c-0.15-0.48-0.53-0.81-0.98-0.93l0,0c-1.36-0.36-2.42-1.56-1.89-3.54l-0.02,0.01
	c0.1-0.37,0.1-0.78-0.02-1.18c-0.34-1.07-1.5-1.67-2.58-1.32l0,0c-1.07,0.34-1.67,1.5-1.32,2.58c0.24,0.76,0.89,1.28,1.63,1.39l0,0
	c2.03,0.33,2.67,1.78,2.44,3.17l0,0c-0.03,0.21-0.02,0.44,0.05,0.66c0.23,0.74,1.03,1.14,1.77,0.91
	C20.63,29.28,21.05,28.49,20.8,27.75z M14.48,23.22c-0.26-0.81,0.18-1.67,0.99-1.94s1.67,0.18,1.94,0.99
	c0.26,0.81-0.18,1.67-0.99,1.94C15.61,24.47,14.74,24.03,14.48,23.22z M19.79,29.18c-0.56,0.18-1.15-0.13-1.33-0.68
	c-0.1-0.3-0.05-0.62,0.1-0.87c0.01-0.02,0.02-0.04,0.04-0.05c0.01-0.01,0.01-0.02,0.02-0.03c0.01-0.02,0.03-0.03,0.04-0.05
	c0.01-0.01,0.01-0.02,0.02-0.03c0.01-0.02,0.03-0.03,0.04-0.04c0.01-0.01,0.02-0.02,0.03-0.02c0.01-0.01,0.03-0.03,0.04-0.04
	c0.01-0.01,0.02-0.02,0.03-0.02c0.02-0.01,0.03-0.02,0.05-0.03c0.01-0.01,0.02-0.01,0.03-0.02c0.02-0.01,0.03-0.02,0.05-0.03
	c0.01-0.01,0.03-0.01,0.04-0.02c0.02-0.01,0.03-0.02,0.05-0.02c0.02-0.01,0.03-0.01,0.05-0.02c0.01-0.01,0.03-0.01,0.04-0.02
	c0.07-0.02,0.13-0.04,0.2-0.04c0.49-0.05,0.96,0.24,1.12,0.73C20.65,28.41,20.35,29,19.79,29.18z"/>
</svg>
