<?xml version="1.0" encoding="utf-8"?>
<svg version="1.1" xmlns="http://www.w3.org/2000/svg" xmlns:xlink="http://www.w3.org/1999/xlink" x="0px" y="0px" width="32px"
	 height="32px" viewBox="0 0 32 32" style="enable-background:new 0 0 32 32;" xml:space="preserve">
<g id="Fax_1_" style="display:none;">
	<g id="F5" style="display:inline;">
		<path id="Fax3" d="M9.7,1.1h15v14H7.1V3.4L9.7,1.1z M7.6,3.7v10.9h16.5V1.7H9.9L7.6,3.7z M27.4,29.9H4.6c-3.4,0-3.5-0.1-3.5-3.1
			v-9.1c0-3,0.1-3.1,3.5-3.1h22.7c3.4,0,3.5,0.1,3.5,3.1v9.1C30.9,29.7,30.7,29.9,27.4,29.9z M4.6,15.1c-1.5,0-2.3,0-2.7,0.3
			c-0.3,0.3-0.3,1-0.3,2.2v9.1c0,1.3,0,2,0.3,2.2c0.3,0.3,1.2,0.3,2.7,0.3h22.7c1.5,0,2.3,0,2.7-0.3c0.3-0.3,0.3-1,0.3-2.2v-9.1
			c0-1.3,0-2-0.3-2.2c-0.3-0.3-1.2-0.3-2.7-0.3H4.6z M27.4,30H4.6C1.2,30,1,29.8,1,26.8v-9.1c0-3,0.2-3.2,3.6-3.2h2.3V3.4L9.6,1
			h15.2v13.5h2.6c3.4,0,3.6,0.2,3.6,3.2v9.1C31,29.8,30.8,30,27.4,30z M4.6,14.7c-3.3,0-3.4,0.1-3.4,2.9v9.1c0,2.9,0.1,2.9,3.4,2.9
			h22.7c3.3,0,3.4-0.1,3.4-2.9v-9.1c0-2.9-0.1-2.9-3.4-2.9h-2.6V15h2.6c1.6,0,2.4,0,2.8,0.3c0.4,0.3,0.4,1,0.4,2.4v9.1
			c0,1.4,0,2-0.4,2.4c-0.4,0.3-1.2,0.3-2.8,0.3H4.6c-1.6,0-2.4,0-2.7-0.3c-0.4-0.3-0.4-1-0.4-2.4v-9.1c0-1.4,0-2,0.4-2.4
			C2.3,15,3.1,15,4.6,15h2.3v-0.3H4.6z M4.6,15.3c-1.4,0-2.3,0-2.6,0.3c-0.3,0.2-0.3,0.9-0.3,2.1v9.1c0,1.2,0,1.9,0.3,2.1
			c0.3,0.3,1.2,0.3,2.6,0.3h22.7c1.4,0,2.3,0,2.6-0.3c0.3-0.2,0.3-0.9,0.3-2.1v-9.1c0-1.2,0-1.9-0.3-2.1c-0.3-0.3-1.2-0.3-2.6-0.3
			H4.6z M7.2,15h17.3v-0.3H7.2V15z M24.2,14.5h0.3V1.3H9.7L7.2,3.5v11h0.3V3.6l2.4-2.1h14.4V14.5z M7.8,14.5H24V1.8h-14L7.8,3.8
			V14.5z M5.5,17.5h5.3v1.1h-4v3.3h3.7V23H6.8v4.5H5.5V17.5z M13.1,24.4l-1,3.1h-1.3l3.4-10h1.5l3.4,10h-1.4l-1.1-3.1H13.1z
			 M16.4,23.4l-1-2.9c-0.2-0.7-0.4-1.2-0.5-1.8h0c-0.1,0.6-0.3,1.2-0.5,1.8l-1,2.9H16.4z M25.7,27.5l-1.3-2.2
			c-0.5-0.8-0.8-1.4-1.1-2h0c-0.3,0.6-0.6,1.1-1.1,2L21,27.5h-1.5l3-5.1l-2.9-4.9h1.5l1.3,2.3c0.4,0.7,0.6,1.2,0.9,1.7h0
			c0.3-0.6,0.5-1.1,0.9-1.7l1.3-2.3h1.5l-3,4.9l3.1,5.1H25.7z M22,6.1H10.1V7H22V6.1z M22,10.8H10.1v0.8H22V10.8z"/>
	</g>
	<g id="F4" style="display:inline;">
		<path id="Fax2" d="M7.9,3.1h4.3v0.9H9v2.6h3v0.8H9V11h-1V3.1z M14,8.5L13.2,11h-1.1l2.7-7.9h1.2l2.7,7.9h-1.1l-0.8-2.5H14z
			 M16.6,7.7l-0.8-2.3c-0.2-0.5-0.3-1-0.4-1.4h0c-0.1,0.5-0.2,1-0.4,1.4l-0.8,2.3H16.6z M24.1,11l-1-1.7c-0.4-0.7-0.7-1.1-0.9-1.6h0
			c-0.2,0.5-0.5,0.9-0.9,1.6l-1,1.7h-1.2l2.4-4l-2.3-3.9h1.2l1,1.9c0.3,0.5,0.5,0.9,0.7,1.3h0c0.2-0.5,0.4-0.8,0.7-1.3L24,3.1h1.2
			l-2.4,3.8l2.5,4.1H24.1z M27.2,31H5c-3.7,0-4-0.1-4-3.1v-9.1c0-3,0.2-3.1,4-3.1h22.2c3.7,0,3.8,0.1,3.8,3.1v9.1
			C31,30.9,30.9,31,27.2,31z M5,16.3c-1.6,0-2.6,0-3,0.3c-0.3,0.3-0.4,0.9-0.4,2.2v9.1c0,1.2,0,1.9,0.4,2.2c0.4,0.3,1.3,0.3,3,0.3
			h22.2c1.6,0,2.5,0,2.9-0.3c0.3-0.3,0.3-0.9,0.3-2.2v-9.1c0-1.2,0-1.9-0.3-2.2c-0.4-0.3-1.2-0.3-2.9-0.3H5z M16.3,22.2
			c-0.7,0-1.4,0-2,0.1c-1.1,0.1-3.1,0.4-3.8,1.1c-0.7,0.7-0.6,2.2-1.4,2.9c-0.7,0.7-4.4,1.8-5.6,0.3c-1-1.3,0.7-4.6,1.7-5.4
			 M16.3,22.2l0-3.3c-3.8,0-7.5,0.1-11,2.1 M27.4,21.1c0.9,0.8,2.6,4.1,1.7,5.4c-1.1,1.5-4.8,0.4-5.6-0.3c-0.7-0.7-0.6-2.2-1.4-2.9
			c-0.6-0.6-2.7-1-3.8-1.1c-0.6,0-1.3-0.1-2-0.1 M27.4,21.1c-3.5-2-7.2-2.2-11-2.1v3.3 M26.8,16.3H5.6V1h21.2V16.3z M6.2,15.7h19.9
			v-14H6.2V15.7z"/>
	</g>
	<g id="F3" style="display:inline;">
		<path id="Fax4" d="M24.2,1l1.2,15.2H6.6L8,1H24.2z M7.2,15.7h17.7L23.8,1.5H8.4L7.2,15.7z M9.2,13.8h13.9l0.1,0.9h-14L9.2,13.8z
			 M9.3,11.5H23l0.1,0.9H9.3L9.3,11.5z M9.5,9.3h13.3l0.1,0.9H9.4L9.5,9.3z M9.6,7.1h13.1L22.8,8H9.6L9.6,7.1z M9.8,4.8h12.7
			l0.1,0.9H9.7L9.8,4.8z M10,2.6h12.5l0.1,0.9H9.9L10,2.6z M10.5,25.4v1c0,0.4-0.2,0.6-0.6,0.6H4.5c-0.4,0-0.6-0.2-0.6-0.6v-0.9
			H10.5z M27.7,24.9c-0.2-1-0.9-2-1.9-2.7c-0.9-0.7-2-1.2-3.4-1.6c-1-0.3-2.1-0.5-3.3-0.6c-1.2-0.1-2.2-0.2-3.1-0.2
			c-1.2,0-2.6,0.1-4,0.3c-1.4,0.2-2.7,0.5-4,1c-1.1,0.4-2,0.9-2.7,1.5c-0.8,0.7-1.2,1.5-1.4,2.4h6.5c0-0.6,0.3-0.9,0.8-1.2
			c0.4-0.2,0.9-0.2,1.6-0.2h5.9c0.6,0,1.2,0.1,1.6,0.3c0.5,0.2,0.7,0.6,0.7,1.1H27.7z M27.8,25.4h-6.6v1c0,0.4,0.2,0.6,0.6,0.6h5.4
			c0.4,0,0.6-0.2,0.6-0.6V25.4z M31,28c0,3,0,3-3.5,3H4.5C1,31,1,31,1,28v-9c0-3,0-3,3.5-3h22.9c3.5,0,3.5,0,3.5,3V28z M4.4,16.5
			c-1.5,0-2.3,0-2.6,0.2c-0.3,0.3-0.3,0.9-0.3,2.2v9c0,1.3-0.1,2,0.3,2.2c0.3,0.3,1.1,0.3,2.6,0.3h22.9c1.5,0,2.4,0,2.7-0.3
			c0.3-0.3,0.4-1,0.4-2.2v-9c0-1.3-0.1-1.9-0.4-2.2c-0.3-0.3-1.2-0.2-2.7-0.2H4.4z"/>
	</g>
	<g id="F2" style="display:inline;">
		<path id="Fax1" d="M11.3,26.2V27c0,0.3-0.2,0.5-0.5,0.5H6.1c-0.4,0-0.6-0.2-0.6-0.5v-0.8H11.3z M26.2,25.7
			c-0.2-0.9-0.8-1.7-1.7-2.4c-0.8-0.6-1.7-1-3-1.4c-0.9-0.3-1.9-0.4-2.9-0.6c-1-0.1-1.9-0.2-2.7-0.2c-1.1,0-2.2,0.1-3.4,0.3
			c-1.2,0.2-2.4,0.5-3.5,0.9c-1,0.4-1.7,0.8-2.3,1.3c-0.7,0.6-1,1.3-1.2,2.1h5.6c0-0.5,0.2-0.8,0.7-1c0.3-0.1,0.8-0.2,1.4-0.2h5.1
			c0.5,0,1,0.1,1.4,0.3c0.4,0.2,0.6,0.5,0.6,0.9H26.2z M26.3,26.2h-5.8V27c0,0.3,0.2,0.5,0.5,0.5h4.7c0.4,0,0.6-0.2,0.6-0.5V26.2z
			 M23.6,18.2H8.2V1h15.4V18.2z M8.7,17.8h14.4V1.5H8.7V17.8z M21.4,5H10.6v0.7h10.9V5z M21.4,13.5H10.6v0.7h10.9V13.5z M21.4,9.3
			H10.6V10h10.9V9.3z M25.9,31H6.1c-3,0-3.1-0.1-3.1-2.7v-7.9c0-2.6,0.1-2.7,3.1-2.7h19.9c3,0,3.1,0.1,3.1,2.7v7.9
			C29,30.9,28.9,31,25.9,31z M6.1,18.2c-1.3,0-2,0-2.3,0.2c-0.3,0.2-0.3,0.8-0.3,1.9v7.9c0,1.1,0,1.7,0.3,1.9c0.3,0.2,1,0.2,2.3,0.2
			h19.9c1.3,0,2,0,2.3-0.2c0.3-0.2,0.3-0.8,0.3-1.9v-7.9c0-1.1,0-1.7-0.3-1.9c-0.3-0.2-1-0.2-2.3-0.2H6.1z"/>
	</g>
	<g id="F1" style="display:inline;">
		<path d="M24.1,31H7.9C6.9,31,6,30.1,6,29.1V2.9C6,1.9,6.9,1,7.9,1h16.1C25.1,1,26,1.9,26,2.9v26.1C26,30.1,25.1,31,24.1,31z"/>
		<path style="fill:#FFFFFF;" d="M23,22H9c-0.6,0-1-0.4-1-1v0c0-0.6,0.4-1,1-1h14c0.6,0,1,0.4,1,1v0C24,21.6,23.6,22,23,22z"/>
		<path style="fill:#FFFFFF;" d="M22,27H9c-0.6,0-1-0.4-1-1v0c0-0.6,0.4-1,1-1h13c0.6,0,1,0.4,1,1v0C23,26.6,22.6,27,22,27z"/>
		<path style="fill:#FFFFFF;" d="M23,12H9c-0.6,0-1-0.4-1-1v0c0-0.6,0.4-1,1-1h14c0.6,0,1,0.4,1,1v0C24,11.6,23.6,12,23,12z"/>
		<path style="fill:#FFFFFF;" d="M15,7H9C8.4,7,8,6.6,8,6v0c0-0.6,0.4-1,1-1h6c0.6,0,1,0.4,1,1v0C16,6.6,15.6,7,15,7z"/>
		<path style="fill:#FFFFFF;" d="M20,17H9c-0.6,0-1-0.4-1-1v0c0-0.6,0.4-1,1-1h11c0.6,0,1,0.4,1,1v0C21,16.6,20.6,17,20,17z"/>
	</g>
</g>
<g id="Location_1_" style="display:none;">
	<g id="L2" style="display:inline;">
		<path id="address2" d="M17.9,24.8c2-4.2,4.9-10.9,5.7-14.7c0,0,1.9-7.3-6.1-8.9c-1-0.2-2-0.2-2.9,0c-8,1.6-6.1,8.9-6.1,8.9
			c0.8,3.9,3.7,10.5,5.7,14.7c-2.8,0.2-7.6,0.9-7.6,3c0,2.2,6.1,3,8.3,3.2C16,31,16,31,17.2,31c2.4-0.2,8.3-1,8.3-3.2
			C25.5,25.7,20.7,25,17.9,24.8z M11.8,8.8c0-2.3,1.9-4.3,4.2-4.3c2.3,0,4.2,1.9,4.2,4.3c0,2.3-1.9,4.3-4.2,4.3
			C13.7,13.1,11.8,11.2,11.8,8.8z M16.7,29.7c-0.4,0-0.8,0-1.2,0c-1.8-0.1-7-0.6-7-2.2c0-1.3,3.6-1.9,5.9-2.1c0.9,2,1.6,3.3,1.6,3.3
			s0.7-1.3,1.6-3.3c2.2,0.2,6,0.7,6,2.1C23.6,29.1,18.5,29.6,16.7,29.7z"/>
	</g>
	<path id="L1" style="display:inline;" d="M20,25.4c-0.8-0.2-1.6-0.2-2.5-0.3c1.6-4.3,4.1-11,4.8-15c0,0,1.5-7.4-5.1-9
		c-0.8-0.2-1.6-0.2-2.4,0c-6.6,1.6-5.1,9-5.1,9c0.7,4,3.1,10.7,4.8,15c-2.2,0.1-4.2,0.5-5.4,1.2C8.4,26.8,8,27.3,8,27.7
		c0.1,4.5,16,4.5,16,0C24,26.8,22.5,25.9,20,25.4z M12.5,8.3C12,5.7,14.2,3.5,16.7,4c1.4,0.3,2.6,1.4,2.8,2.9
		c0.5,2.6-1.7,4.8-4.3,4.3C13.9,10.9,12.7,9.8,12.5,8.3z M21.7,28.9c-1.8,1.1-5.9,1.4-9,0.8c-3.2-0.6-4.2-2-2.4-3
		c1-0.6,2.6-0.9,4.4-1.1c0.8,2,1.3,3.4,1.3,3.4s0.6-1.4,1.3-3.4c0.7,0,1.3,0.1,2,0.3C22.5,26.5,23.5,27.8,21.7,28.9z"/>
</g>
<g id="Envelop" style="display:none;">
	<g id="E3" style="display:inline;">
		<path id="Mail2" d="M31,24.8c0-1.3,0-16.3,0-17.5C31,6,31,6,29.7,6C28.5,6,3.5,6,2.2,6C1,6,1,6,1,7.3c0,1.2,0,16.2,0,17.5
			C1,26,1,26,2.2,26c1.3,0,26.3,0,27.5,0C31,26,31,26,31,24.8z M11.9,15.9l3.7,3c0.1,0.1,0.3,0.1,0.4,0.1c0.1,0,0.3,0,0.4-0.1l3.7-3
			l8.8,8.8H3.1L11.9,15.9z M2.2,23.9v-16l8.7,7.3L2.2,23.9z M3.5,7.3h25L16,17.7L3.5,7.3z M29.7,7.9v16L21,15.1L29.7,7.9z"/>
	</g>
	<path id="E2" style="display:inline;" d="M15.3,2.8L1.5,13.3c-0.3,0.2-0.5,0.6-0.5,1v14c0,0.7,0.5,1.2,1.2,1.2H16h13.8
		c0.7,0,1.2-0.6,1.2-1.2v-14c0-0.4-0.2-0.7-0.5-1L16.7,2.8C16.3,2.4,15.7,2.4,15.3,2.8z M15.2,23.6L3,14.1h13h13l-12.2,9.5
		C16.3,23.9,15.7,23.9,15.2,23.6z"/>
	<g id="E1" style="display:inline;">
		<path id="Mail1" d="M2,6c0.1,0,0.1,0,0.2,0h27.5c0.1,0,0.1,0,0.2,0L16,17.7L2,6z M31,7.2c0-0.1,0-0.3-0.1-0.4L21,15.1l9.9,9.9
			c0-0.1,0.1-0.2,0.1-0.3V7.2z M1.1,6.9C1,7,1,7.1,1,7.2v17.5c0,0.1,0,0.2,0.1,0.3l9.9-9.9L1.1,6.9z M20.1,15.9l-3.7,3
			c-0.1,0.1-0.3,0.1-0.4,0.1c-0.1,0-0.3,0-0.4-0.1l-3.7-3l-10,10C2,26,2.1,26,2.2,26h27.5c0.1,0,0.2,0,0.3-0.1L20.1,15.9z"/>
	</g>
</g>
<g id="Phone_1_" style="display:none;">
	<g id="P3_1_" style="display:inline;">
		<path d="M11.3,9.6l-1.2,0.7C9.6,10.5,9.2,10.4,9,9.9L5.3,3.5C5,2.9,5.1,2.6,5.6,2.3l1.1-0.7L11.3,9.6z"/>
		<path d="M23.7,29.8c1.1-1,1.8-2.4,2-4.2c0.2-1.5,0.1-3.2-0.4-5.2c-0.4-1.4-0.9-2.9-1.5-4.4c-0.6-1.5-1.3-2.8-1.9-3.9
			c-0.8-1.5-1.9-3-3.1-4.5c-1.2-1.5-2.5-2.9-4-4.1c-1.3-1-2.5-1.7-3.6-2.1c-1.3-0.4-2.6-0.4-3.8,0l4.5,7.8c0.7-0.4,1.3-0.3,2,0.2
			c0.5,0.4,0.9,1,1.4,1.8l4,7.1c0.4,0.7,0.7,1.5,0.7,2.2c0.1,0.7-0.2,1.2-0.8,1.6L23.7,29.8z"/>
		<path d="M23.1,30.3l-4.6-7.9L17.4,23c-0.5,0.3-0.5,0.6-0.3,1.1l3.7,6.4c0.3,0.5,0.7,0.6,1.2,0.3L23.1,30.3z"/>
	</g>
	<path id="P2_2_" style="display:inline;" d="M21.5,1h-11C9.1,1,8,2.1,8,3.5v25c0,1.4,1.1,2.5,2.5,2.5h11c1.4,0,2.5-1.1,2.5-2.5v-25
		C24,2.1,22.9,1,21.5,1z M14.5,3h3C17.8,3,18,3.2,18,3.5C18,3.8,17.8,4,17.5,4h-3C14.2,4,14,3.8,14,3.5C14,3.2,14.2,3,14.5,3z
		 M16,30c-0.8,0-1.5-0.7-1.5-1.5c0-0.8,0.7-1.5,1.5-1.5c0.8,0,1.5,0.7,1.5,1.5C17.5,29.3,16.8,30,16,30z M23,26H9V6h14V26z"/>
	<path id="P1_2_" style="display:inline;" d="M22.5,1h-13C8.7,1,8,1.7,8,2.5v27C8,30.3,8.7,31,9.5,31h13c0.8,0,1.5-0.7,1.5-1.5v-27
		C24,1.7,23.3,1,22.5,1z M14.5,3h3C17.8,3,18,3.2,18,3.5C18,3.8,17.8,4,17.5,4h-3C14.2,4,14,3.8,14,3.5C14,3.2,14.2,3,14.5,3z
		 M16,30c-0.8,0-1.5-0.7-1.5-1.5c0-0.8,0.7-1.5,1.5-1.5c0.8,0,1.5,0.7,1.5,1.5C17.5,29.3,16.8,30,16,30z M22.5,25.9H9.6V6.1h12.9
		V25.9z"/>
</g>
<g id="Planet" style="display:none;">
	<g id="P3" style="display:inline;">
		<path id="Welt" d="M15.1,1c1.1-0.1,2.3,0,3.7,0.3c1.1,0.3,2,0.5,2.8,0.8l2.2,1.1c1.4,0.9,2.5,1.8,3.3,2.7c1.4,1.6,2.3,3.1,2.9,4.6
			c0.6,1.8,0.9,3.2,1,4.1l-0.1,3.2L30.9,18l-0.1,1.1l-0.8,2.6c-0.4,0.8-0.8,1.7-1.4,2.6c-0.8,1.1-1.7,2.2-2.7,3.1
			c-2.7,2.2-5.7,3.4-9,3.6h-1.6c-0.9,0-2.1-0.2-3.6-0.7l-1.4-0.5l-2-1c-1.4-0.9-2.5-1.8-3.4-2.8C4.5,25.7,4,25,3.3,24.1
			c-1.5-2.3-2.3-4.9-2.3-7.7c0-1.4,0.1-2.6,0.3-3.4c0.8-3.4,2.5-6.2,5.1-8.4C8.9,2.4,11.8,1.3,15.1,1z M15.3,30.7
			c0.7,0.1,1.9,0,3.5-0.2c1.4-0.4,2.4-0.7,2.8-0.8l2.2-1.1c1.5-1,2.5-1.8,3.2-2.6c0.7-0.8,1.4-1.8,2-2.8c1-1.9,1.6-4,1.8-6.1v-2.1
			c-0.1-1.1-0.3-1.9-0.4-2.5c-0.4-1.4-0.9-2.6-1.5-3.8l-1.4-2l-1.2-1.3c-0.9-0.8-1.6-1.4-2.2-1.7l-1.5-0.8h-0.1V3l1.5,0.8L24.2,4
			l0.8,0.5L25,4.6L23.7,4l-0.1,0v0.4l1,1.1l0.1,0l0.1-0.2l0.3,0.1L25.9,6L27,7.5c-0.1,0.3-0.1,0.4,0,0.4l0.5,0.9L28,9.3L28,9.9
			l-0.5-0.4l-0.1,0l0.1,0.8l0.9,0.8l0.3,1.1v1l-0.5,1c0.1,0.2,0.2,0.5,0.1,0.9l-0.3,0l0-0.6l0,0l-0.2,0L27.7,15
			c0,0.1,0.1,0.3,0.3,0.6c0.3,0,0.5,0.2,0.5,0.6c0.1,0.5-0.1,1.1-0.3,1.8L28,17.7l-0.2-0.2l-0.6-0.3l0,0.1l0,0.8l0.4,0.5
			c0.3,0.1,0.4,0.2,0.4,0.3l0.2,0.9l0,0.1l-0.4-0.1v0.1c0.3,0.2,0.6,0.4,0.7,0.6l-0.1,0.8l-0.4-0.1l-0.4-0.3l-0.3-0.7l-0.6-0.4
			l-0.1-0.1c-0.1-0.2,0.1-0.3,0.4-0.4c0.3,0.2,0.5,0.3,0.5,0.2l-0.1-0.5l-0.4-0.3l-0.2-1.3l-0.3-0.5c0,0-0.1,0.1-0.3,0.3
			c-0.2-0.1-0.3-0.4-0.3-0.7L25.2,16c0-0.2-0.1-0.2-0.2-0.3l-0.7,0.4l-0.6,1.3l-0.5,0.4c0.1,0.2,0.1,0.7,0,1.4
			c0.5,0.4,0.7,0.7,0.4,1.1c-0.3,0.1-0.5-0.1-0.5-0.5l0-0.4h-0.1c-0.2,0.4-0.3,0.6-0.4,0.6l-0.4-0.5l-0.8-1.4l-0.2-1.1L21.1,17
			l-0.3,0.2l-0.7-0.5c-0.2-0.3-0.3-0.5-0.4-0.5c-0.9,0.2-1.4,0.2-1.4,0.2l-0.6-0.1L17.6,16l-0.1,0l0.1,0.4l0.1,0.1
			c0.3,0,0.5,0,0.5,0.1c0.2,0.2,0.3,0.4,0.1,0.5l-0.3,0.3c0,0.3-0.2,0.6-0.6,0.8c-1.4,0.9-2.4,1.4-3,1.4c-0.1,0-0.1,0.1,0,0.4
			c0.2,0,0.5,0,0.8-0.1h0.5l0.2-0.2l0.3,0l-0.1,0.7l-0.4,0.8L15.1,22l-0.7,0.4l-0.8,0.8l-0.4,0.5l0.1,0.3l0,0.2l0.3,0.4l0.2,1.1
			l-0.3,0.4c-0.5,0.1-0.8,0.2-1.1,0.4l0.2,0.7c0,0.3-0.2,0.4-0.4,0.3c0,0.1-0.2,0.4-0.5,0.8l-0.5,0.2l-1.3-0.1L9.4,28
			c-0.2-0.3-0.5-0.7-1.1-1.1v-0.3C8.1,26.6,8,26.4,8,26.1l-0.8-1l-0.2-0.4l0.1-0.6l0.2-0.2l-0.5-1.6l-0.7-1c0.1-0.2,0.2-0.6,0.1-1.2
			l-0.1-0.2l-0.6,0l-0.1-0.6L5.1,19H4.3L4,18.7c-0.3,0-0.5,0-0.7-0.2l-0.2-0.8l-0.2-0.4c0.1-0.2,0-0.7-0.2-1.6L2.8,15
			c0.2-0.2,0.3-0.4,0.3-0.5c0.1-0.3,0.1-0.7,0.1-1L3.7,13c0.1-0.4,0.4-0.6,1-0.6c0-0.2,0.2-0.4,0.5-0.8l0.4,0L6,11.3l0.4,0.3
			c0.4-0.1,1.1,0,2,0.2l0.1,0.1l0.1,0.5l-0.2,0.4c0.1,0.2,0.3,0.3,0.6,0.3l0.1,0.4l0.5,0.5c0.1,0,0.2,0,0.3-0.1c0-0.3,0-0.4,0.1-0.4
			h0.3l1.4,0.8l0.7,0c0.3,0.1,0.4,0.1,0.4,0l0.4-0.9l0-0.1c-0.3,0.1-0.5,0-0.5-0.1c-0.1-0.1-0.3-0.2-0.8-0.1l-0.3-0.5
			c0.1-0.4,0.1-0.6,0-0.6l-0.4,0.1l0.2,0.3L11,12.6l-0.2,0l-0.2,0.2l-0.3-0.1c0.1-0.4,0.1-0.6,0-0.7l-0.1-0.2H10l0-0.1l-0.1,0
			l-0.2,0.4l-0.3,0.1c0,0.1,0,0.2-0.1,0.2L8.7,12v-0.1c0.5,0.1,0.8,0.1,0.9,0v-0.2l-0.2-0.2L9,10.8c0.1-0.2,0.1-0.3,0-0.4l-0.6,0.1
			l-0.1-0.2H8.2L8,10.6l-0.6,0.1l-0.1,0.3l-0.4,0.3H6.4l-0.3-0.2v-0.2l-0.2-0.2v-0.2l0.3-0.5l0.4-0.4l0.1-0.3H7C7,9.4,7,9.5,7.1,9.6
			l0.4,0.2C7.9,9.5,8,9.2,7.9,9.1l0-0.5C8,8.6,8.2,8.5,8.3,8.6l0.1-0.1C8.2,8.4,8.1,8.3,8.1,8.3L8.5,8c0-0.1-0.1-0.2-0.4-0.2l0-0.3
			l0.4-0.4l0.6,0l0.5-0.6h0.1L10,6.8C9.9,7,9.7,7.2,9.5,7.2L9.4,8.1L9.2,8.3l0,0.1h0.2l0.2-0.2h0.5l0.3-0.6l0.6-0.1l0-0.1l-0.3,0.1
			l-0.2-0.2l0.2-0.5l0.4-0.3L12,6.3c0.3-0.2,0.6-0.4,0.8-0.8l0.8-0.1h0.7l0.9,0.7l0.2,0.3c0-0.2,0-0.3,0.1-0.3l0.1,0
			c0,0.2,0,0.2,0.1,0.3l1.1-0.3l-0.1-0.1l-0.7-0.1c-0.1-0.2-0.1-0.3,0-0.4l0.7-1l0.5,0.1v0.1l-0.7,0.8c0,0.1,0,0.1,0.1,0.2l0.6,0.2
			h0.1L17.5,5l0.4,0.1l0.4,0l-0.1-0.2l0.2-0.1l0-0.2l0.3-0.4l-0.1-0.3l0-0.1h0.8l0.1,0.3l0.1,0.1l0.4-0.5l0.6,0.2l0,0
			c0.1-0.1,0-0.3-0.3-0.4l0-0.3C20.6,3,20.6,3,20.6,2.9l-0.8-1.1c-0.4-0.2-1.4-0.4-3.1-0.5h-0.9l-1.2,1.2h-0.2v0.1
			c0.2,0.1,0.2,0.1,0.3,0.2l-0.4,0.6l-3,0.9H11l-0.4-0.2L9.7,4.1c-0.7,0.2-1,0.3-1,0.3l0-0.2l0.6-0.6c1.6-0.6,2.7-0.9,3.2-1
			c0.3-0.2,0.4-0.3,0.3-0.4L10.7,3h-0.6L8.4,3.8L6.2,5.4l-0.1,0c0-0.1,0-0.2-0.1-0.2C3.2,7.8,1.7,11.1,1.3,15
			c-0.1,2.5,0.2,4.6,1,6.3c1.3,3.1,3.1,5.4,5.4,6.9C9.8,29.7,12.3,30.5,15.3,30.7z M10.2,11.6l0.2-0.1c0.1-0.1-0.1-0.3-0.4-0.6
			l-0.1-0.5l-0.2,0L9.7,11L10.2,11.6z M10.3,4.5l0.1,0c-0.1,0.2,0,0.3,0.2,0.4c0,0.1-0.1,0.2-0.3,0.4l-0.7,0l0.2-0.5L10.3,4.5z
			 M10.8,8.2l0.2,0.2l0.7-0.1l0.1,0.2h0.1c0-0.2,0.1-0.4,0.3-0.6L12.5,8l0.1,0l-0.1-0.2l0.2-0.2c-0.1-0.2-0.2-0.4-0.1-0.4l0.3-0.4
			c0.2,0,0.3-0.1,0.3-0.2h-0.1c-0.3,0.2-0.4,0.3-0.5,0.2L12.3,7l0.1,0.4L12,7.6L11.6,8L11,8.2L10.8,8.2L10.8,8.2z M12.2,11.9h0.2
			c0.1-0.1,0.3-0.2,0.7-0.1c0.2,0.2,0.5,0.3,0.8,0.3c0.2,0,0.3,0,0.4-0.1l-0.1-0.3l-0.6-0.3l-0.1-0.1L13,11.3
			c-0.1,0-0.1-0.2-0.1-0.4c0-0.1-0.1-0.1-0.3-0.1l-0.1,0.3l-0.3,0.1L12,11.6C11.9,11.7,12,11.9,12.2,11.9z M14.1,19.3h0.1l-0.2-0.8
			l-0.3-0.2l-0.1-0.5l-0.4-0.3v-0.7L13,16.5v-0.4l-0.4-0.7l-0.1,0.1c-0.1,0.1,0,0.5,0.2,1l0.3,0.3v0.9l0.4,0.4l0.1,0.5
			c0,0,0.2,0.2,0.7,0.5L14.1,19.3z M15.7,25.1c0.3,0.1,0.5,0.4,0.5,0.8V26L16,26.2l-0.5,1.4L15,27.7c-0.5,0-0.8-0.2-0.8-0.7v-0.1
			l0.3-0.3l-0.2-0.3c0.2-0.4,0.4-0.5,0.7-0.4l0.3-0.5L15.7,25.1z M16.1,13.3l0.6,0c0-0.1-0.1-0.4-0.3-1l-0.1-0.5L16,11.4l0.3-0.4
			l-0.1-0.1c-0.1-0.1-0.4,0.1-0.8,0.4v0.2l0.7,0.9l-0.3,0.3l0,0.4L16.1,13.3z M16.8,16.5h0.2l0.3-0.3L17.1,16l-0.8-0.3L16,15.2
			l-0.3,0.1c0,0.1,0.2,0.5,0.7,1.1L16.8,16.5z M29.5,17l0.4,0.1l-0.2,0.8l0.2,0.5l-0.1,0.4l-0.1,0.9L29,20.1L28.7,20l-0.2-0.8
			l0.4-0.4v-0.4l0.6-1.1L29.5,17z"/>
	</g>
	<g id="P2_1_" style="display:inline;">
		<path id="Internet" d="M16,31C7.7,31,1,24.3,1,16S7.7,1,16,1s15,6.7,15,15S24.3,31,16,31z M15.6,30.4c0.3,0,0.5,0,0.8,0
			c1.8-1.9,3.2-4.5,4.1-7.4h-9C12.4,25.9,13.8,28.5,15.6,30.4z M21.1,23c-0.8,2.9-2.2,5.4-3.9,7.4c0,0,0.1,0,0.1,0
			c3.4-1.2,6.2-3.9,7.8-7.4H21.1z M14.6,30.3c0,0,0.1,0,0.1,0c-1.7-2-3-4.5-3.9-7.4h-4C8.5,26.5,11.2,29.2,14.6,30.3z M25.8,23
			c-0.4,0.8-0.8,1.6-1.3,2.4c-1.3,1.9-2.9,3.5-4.8,4.5c3.8-1,7-3.7,8.9-6.9H25.8z M3.4,23c1.9,3.3,5.1,5.9,8.9,6.9
			c-1.9-1.1-3.5-2.6-4.8-4.5C7,24.6,6.6,23.8,6.2,23H3.4z M26,22.4h2.9c0.9-1.8,1.4-3.9,1.5-6.2h-3.2C27.2,18.5,26.8,20.5,26,22.4z
			 M21.3,22.4h4.1c0.8-1.8,1.2-3.9,1.2-6.2h-4.5C22.1,18.5,21.8,20.5,21.3,22.4z M11.3,22.4h9.3c0.5-1.8,0.8-3.9,0.8-6.2h-11
			C10.5,18.5,10.8,20.5,11.3,22.4z M6.6,22.4h4.1c-0.5-1.8-0.8-3.9-0.8-6.2H5.4C5.4,18.5,5.8,20.5,6.6,22.4z M3.1,22.4h2.9
			c-0.8-1.8-1.2-3.9-1.2-6.2H1.6C1.6,18.5,2.2,20.5,3.1,22.4z M27.2,15.8h3.2c0-2.3-0.6-4.3-1.5-6.2H26
			C26.7,11.5,27.2,13.5,27.2,15.8z M22.1,15.8h4.5c0-2.3-0.5-4.3-1.3-6.2h-4.1C21.8,11.5,22.1,13.5,22.1,15.8z M10.5,15.8h11
			c0-2.3-0.3-4.3-0.8-6.2h-9.3C10.8,11.5,10.5,13.5,10.5,15.8z M5.4,15.8h4.5c0-2.3,0.3-4.3,0.8-6.2H6.6C5.8,11.5,5.4,13.5,5.4,15.8
			z M1.6,15.8h3.2c0-2.3,0.5-4.3,1.2-6.2H3.1C2.2,11.5,1.6,13.5,1.6,15.8z M25.7,9h2.8c-1.9-3.5-5.3-6.1-9.2-7
			C22.1,3.5,24.4,5.9,25.7,9z M21.1,9h4c-1.6-3.5-4.4-6.1-7.8-7.3C19,3.7,20.3,6.1,21.1,9z M11.5,9h9c-0.9-2.9-2.3-5.5-4.1-7.4
			c-0.3,0-0.5,0-0.8,0C13.8,3.5,12.4,6.1,11.5,9z M6.9,9h4c0.8-2.9,2.1-5.3,3.8-7.3C11.3,2.9,8.5,5.5,6.9,9z M3.4,9h2.8
			c1.4-3.1,3.6-5.5,6.4-7C8.6,2.9,5.3,5.5,3.4,9z"/>
	</g>
	<g id="P1_1_" style="display:inline;">
		<g>
			<path d="M17.3,1.2c1.8,2,3.1,4.6,3.9,7.6h4.1C23.8,5.1,20.9,2.4,17.3,1.2z"/>
			<path d="M21.5,9.4c0.5,1.9,0.8,3.9,0.8,6.3H27c0-2.4-0.5-4.4-1.3-6.3H21.5z"/>
			<path d="M20.6,8.7c-0.9-2.8-2.3-5.5-4.1-7.5C16.5,1.1,16.3,1,16.1,1c-0.1,0-0.1,0-0.2,0c-0.2,0-0.4,0.1-0.5,0.2
				c-1.8,2-3.2,4.7-4.1,7.5H20.6z"/>
			<path d="M6.5,8.7h4.1c0.8-3,2.2-5.5,3.9-7.6C11,2.4,8.2,5.1,6.5,8.7z"/>
			<path d="M12.4,1.4c-4.1,1-7.6,3.7-9.6,7.3h3C7.2,5.5,9.5,3,12.4,1.4z"/>
			<path d="M27,16.4h-4.7c0,2.4-0.3,4.3-0.8,6.3h4.3C26.5,20.7,27,18.7,27,16.4z"/>
			<path d="M4.9,15.7h4.7c0-2.4,0.3-4.4,0.8-6.3H6.2C5.4,11.3,4.9,13.3,4.9,15.7z"/>
			<path d="M20.8,9.4h-9.7c-0.5,1.9-0.8,3.9-0.9,6.3h11.4C21.7,13.3,21.4,11.3,20.8,9.4z"/>
			<path d="M6.2,22.6h4.3c-0.5-1.9-0.8-3.9-0.8-6.3H4.9C4.9,18.7,5.4,20.7,6.2,22.6z"/>
			<path d="M20.8,22.6c0.5-1.9,0.8-3.9,0.9-6.3H10.2c0,2.4,0.3,4.3,0.9,6.3H20.8z"/>
			<path d="M5.5,9.4h-3c-1,1.9-1.5,3.9-1.6,6.3h3.3C4.3,13.3,4.8,11.3,5.5,9.4z"/>
			<path d="M19.5,1.4c2.9,1.5,5.2,4.1,6.6,7.3h3C27.1,5.1,23.6,2.4,19.5,1.4z"/>
			<path d="M24.8,25.8c-1.3,2-3,3.6-5,4.7c4-1.1,7.3-3.8,9.3-7.2h-2.9C25.8,24.1,25.3,25,24.8,25.8z"/>
			<path d="M26.4,22.6h3c1-1.9,1.5-3.9,1.6-6.3h-3.3C27.6,18.7,27.2,20.7,26.4,22.6z"/>
			<path d="M27.7,15.7H31c0-2.4-0.6-4.4-1.6-6.3h-3C27.2,11.3,27.6,13.3,27.7,15.7z"/>
			<path d="M7.1,25.8c-0.5-0.8-1-1.6-1.4-2.5H2.8c2,3.4,5.3,6.2,9.3,7.2C10.2,29.4,8.4,27.8,7.1,25.8z"/>
			<path d="M6.5,23.3c1.7,3.6,4.5,6.4,8.1,7.7c0,0,0.1,0,0.1,0c-1.8-2.1-3.2-4.7-4-7.7H6.5z"/>
			<path d="M25.5,23.3h-4.2c-0.9,3-2.2,5.6-4,7.7c0,0,0.1,0,0.1,0C20.9,29.7,23.8,26.9,25.5,23.3z"/>
			<path d="M4.3,16.4H1c0,2.4,0.6,4.3,1.6,6.3h3C4.7,20.7,4.3,18.7,4.3,16.4z"/>
			<path d="M11.3,23.3c0.9,2.8,2.3,5.5,4.1,7.5c0.1,0.2,0.3,0.2,0.5,0.2c0.1,0,0.1,0,0.2,0c0.2,0,0.4-0.1,0.5-0.2
				c1.8-2,3.2-4.7,4.1-7.5H11.3z"/>
		</g>
	</g>
</g>
<g id="Person_1_" style="display:none;">
	<g id="P3_2_" style="display:inline;">
		<g>
			<path d="M16,18.3c0.2,0,0.3,0.1,0.3,0.3l0.2,10.9c0,2,2.6,2,2.6,0s-0.3-17.7-0.3-17.7l1.3,4c0.6,2.2,2.8,1.8,2.2-0.5
				S20,7.5,20,7.5s-0.1-1-1.2-1h-5.5c-1.1,0-1.2,1-1.2,1s-1.8,5.3-2.4,7.7s1.7,2.8,2.2,0.5l1.3-4c0,0-0.3,15.6-0.3,17.7s2.6,2,2.6,0
				l0.2-10.9C15.6,18.4,15.8,18.3,16,18.3L16,18.3z"/>
			<ellipse cx="16" cy="3.4" rx="2.2" ry="2.4"/>
		</g>
	</g>
	<path id="P2" style="display:inline;" d="M17.3,20.5v-1c0-0.1,0.1-0.2,0.2-0.2C23,17.6,23,9.2,23,9.2s0.6-6.5-7-7.2c0,0,0,0-0.1,0
		C8.3,2.6,9,9.2,9,9.2s0,8.5,5.6,10.1c0.1,0,0.2,0.1,0.2,0.2v0.9c0,0.1-0.1,0.2-0.2,0.2c-8.7,0.7-13,7.2-13.6,9
		C1,29.8,1.1,30,1.3,30h29.5c0.2,0,0.3-0.1,0.3-0.3c-0.4-2.1-4.6-8.4-13.5-9C17.4,20.7,17.3,20.6,17.3,20.5z"/>
	<g id="P1" style="display:inline;">
		<path d="M16,20.5c-9.4,0-14.2,6.6-14.9,8.6c-0.1,0.2,0.1,0.4,0.3,0.4h29.3c0.2,0,0.4-0.2,0.3-0.4C30.5,26.9,25.7,20.5,16,20.5z"/>
		<path d="M14.6,19.2c0.9,0.2,1.8,0.2,2.7,0C23,17.6,23,9.4,23,9.4s0.6-6-6.3-6.9c-0.5-0.1-0.9-0.1-1.4,0C8.3,3.4,9,9.4,9,9.4
			S9,17.6,14.6,19.2z"/>
	</g>
</g>
<g id="Ebene_18">
	<g id="a11y">
		<circle cx="16" cy="3.6" r="3.6"/>
		<path d="M28.2,7.6C26.4,8,16,9.7,16,9.7S5.7,8,3.8,7.6c-2-0.5-2.3,1.6-1,2C4,10.1,12,12.7,12,12.7v7.1c0,0-2.7,9.8-3.1,11.2
			c-0.1,1.2,1.7,1.2,2,0c0.5-1.2,5.1-11.2,5.1-11.2s4.6,10,5.1,11.2c0.3,1.2,2.1,1.2,2,0C22.7,29.7,20,19.9,20,19.9v-7.1
			c0,0,8-2.6,9.2-3.1S30.3,7.2,28.2,7.6z"/>
	</g>
</g>
</svg>
